<svg width="4000" height="4000" viewBox="0 0 1000 1000" fill="none" xmlns="http://www.w3.org/2000/svg"><defs><rect id="l" width="400" height="2" fill="white"/></defs><rect width="1000" height="1000" fill="#0A0A0A"/><use href="#l" x="300" y="200"/><use href="#l" x="300" y="205"/><use href="#l" x="300" y="211"/><use href="#l" x="300" y="217"/><use href="#l" x="300" y="223"/><use href="#l" x="300" y="229"/><use href="#l" x="300" y="235"/><use href="#l" x="300" y="241"/><use href="#l" x="300" y="246"/><use href="#l" x="300" y="252"/><use href="#l" x="300" y="258"/><use href="#l" x="300" y="263"/><use href="#l" x="300" y="269"/><use href="#l" x="300" y="275"/><use href="#l" x="300" y="280"/><use href="#l" x="300" y="286"/><use href="#l" x="300" y="291"/><use href="#l" x="300" y="297"/><use href="#l" x="300" y="302"/><use href="#l" x="300" y="308"/><use href="#l" x="300" y="313"/><use href="#l" x="300" y="319"/><use href="#l" x="300" y="324"/><use href="#l" x="300" y="329"/><use href="#l" x="300" y="335"/><use href="#l" x="300" y="340"/><use href="#l" x="300" y="345"/><use href="#l" x="300" y="350"/><use href="#l" x="300" y="355"/><use href="#l" x="300" y="361"/><use href="#l" x="300" y="366"/><use href="#l" x="300" y="371"/><use href="#l" x="300" y="376"/><use href="#l" x="300" y="381"/><use href="#l" x="300" y="386"/><use href="#l" x="300" y="391"/><use href="#l" x="300" y="396"/><use href="#l" x="300" y="401"/><use href="#l" x="300" y="406"/><use href="#l" x="300" y="410"/><use href="#l" x="300" y="415"/><use href="#l" x="300" y="419"/><use href="#l" x="300" y="424"/><use href="#l" x="300" y="428"/><use href="#l" x="300" y="433"/><use href="#l" x="300" y="438"/><use href="#l" x="300" y="443"/><use href="#l" x="300" y="447"/><use href="#l" x="300" y="452"/><use href="#l" x="300" y="456"/><use href="#l" x="300" y="461"/><use href="#l" x="300" y="465"/><use href="#l" x="300" y="470"/><use href="#l" x="300" y="474"/><use href="#l" x="300" y="479"/><use href="#l" x="300" y="483"/><use href="#l" x="300" y="487"/><use href="#l" x="300" y="492"/><use href="#l" x="300" y="496"/><use href="#l" x="300" y="500"/><use href="#l" x="300" y="504"/><use href="#l" x="300" y="509"/><use href="#l" x="300" y="513"/><use href="#l" x="300" y="517"/><use href="#l" x="300" y="521"/><use href="#l" x="300" y="525"/><use href="#l" x="300" y="529"/><use href="#l" x="300" y="533"/><use href="#l" x="300" y="537"/><use href="#l" x="300" y="541"/><use href="#l" x="300" y="545"/><use href="#l" x="300" y="549"/><use href="#l" x="300" y="553"/><use href="#l" x="300" y="556"/><use href="#l" x="300" y="560"/><use href="#l" x="300" y="564"/><use href="#l" x="300" y="568"/><use href="#l" x="300" y="571"/><use href="#l" x="300" y="575"/><use href="#l" x="300" y="579"/><use href="#l" x="300" y="582"/><use href="#l" x="300" y="585"/><use href="#l" x="300" y="589"/><use href="#l" x="300" y="592"/><use href="#l" x="300" y="596"/><use href="#l" x="300" y="599"/><use href="#l" x="300" y="603"/><use href="#l" x="300" y="606"/><use href="#l" x="300" y="610"/><use href="#l" x="300" y="613"/><use href="#l" x="300" y="616"/><use href="#l" x="300" y="620"/><use href="#l" x="300" y="623"/><use href="#l" x="300" y="626"/><use href="#l" x="300" y="629"/><use href="#l" x="300" y="633"/><use href="#l" x="300" y="636"/><use href="#l" x="300" y="639"/><use href="#l" x="300" y="642"/><use href="#l" x="300" y="645"/><use href="#l" x="300" y="648"/><use href="#l" x="300" y="651"/><use href="#l" x="300" y="654"/><use href="#l" x="300" y="657"/><use href="#l" x="300" y="660"/><use href="#l" x="300" y="663"/><use href="#l" x="300" y="665"/><use href="#l" x="300" y="668"/><use href="#l" x="300" y="671"/><use href="#l" x="300" y="674"/><use href="#l" x="300" y="677"/><use href="#l" x="300" y="679"/><use href="#l" x="300" y="682"/><use href="#l" x="300" y="685"/><use href="#l" x="300" y="687"/><use href="#l" x="300" y="690"/><use href="#l" x="300" y="692"/><use href="#l" x="300" y="695"/><use href="#l" x="300" y="697"/><use href="#l" x="300" y="700"/><use href="#l" x="300" y="702"/><use href="#l" x="300" y="704"/><use href="#l" x="300" y="707"/><use href="#l" x="300" y="709"/><use href="#l" x="300" y="711"/><use href="#l" x="300" y="713"/><use href="#l" x="300" y="716"/><use href="#l" x="300" y="718"/><use href="#l" x="300" y="720"/><use href="#l" x="300" y="722"/><use href="#l" x="300" y="724"/><use href="#l" x="300" y="727"/><use href="#l" x="300" y="729"/><use href="#l" x="300" y="731"/><use href="#l" x="300" y="733"/><use href="#l" x="300" y="735"/><use href="#l" x="300" y="737"/><use href="#l" x="300" y="739"/><use href="#l" x="300" y="740"/><use href="#l" x="300" y="742"/><use href="#l" x="300" y="744"/><use href="#l" x="300" y="746"/><use href="#l" x="300" y="748"/><use href="#l" x="300" y="749"/><use href="#l" x="300" y="751"/><use href="#l" x="300" y="753"/><use href="#l" x="300" y="755"/><use href="#l" x="300" y="756"/><use href="#l" x="300" y="758"/><use href="#l" x="300" y="759"/><use href="#l" x="300" y="761"/><use href="#l" x="300" y="762"/><use href="#l" x="300" y="764"/><use href="#l" x="300" y="765"/><use href="#l" x="300" y="767"/><use href="#l" x="300" y="768"/><use href="#l" x="300" y="769"/><use href="#l" x="300" y="771"/><use href="#l" x="300" y="772"/><use href="#l" x="300" y="773"/><use href="#l" x="300" y="775"/><use href="#l" x="300" y="776"/><use href="#l" x="300" y="777"/><use href="#l" x="300" y="778"/><use href="#l" x="300" y="779"/><use href="#l" x="300" y="780"/><use href="#l" x="300" y="781"/><use href="#l" x="300" y="782"/><use href="#l" x="300" y="783"/><use href="#l" x="300" y="784"/><use href="#l" x="300" y="785"/><use href="#l" x="300" y="786"/><use href="#l" x="300" y="787"/><use href="#l" x="300" y="788"/><use href="#l" x="300" y="789"/><use href="#l" x="300" y="789"/><use href="#l" x="300" y="790"/><use href="#l" x="300" y="791"/><use href="#l" x="300" y="792"/><use href="#l" x="300" y="792"/><use href="#l" x="300" y="793"/><use href="#l" x="300" y="794"/><use href="#l" x="300" y="794"/><use href="#l" x="300" y="795"/><use href="#l" x="300" y="795"/><use href="#l" x="300" y="796"/><use href="#l" x="300" y="796"/><use href="#l" x="300" y="797"/><use href="#l" x="300" y="797"/><use href="#l" x="300" y="797"/><use href="#l" x="300" y="798"/><use href="#l" x="300" y="798"/><use href="#l" x="300" y="798"/><use href="#l" x="300" y="799"/><use href="#l" x="300" y="799"/><use href="#l" x="300" y="799"/><use href="#l" x="300" y="799"/><use href="#l" x="300" y="799"/><use href="#l" x="300" y="799"/><use href="#l" x="300" y="799"/><use href="#l" x="300" y="799"/><use href="#l" x="300" y="799"/></svg>