<svg width="4000" height="4000" viewBox="0 0 1000 1000" fill="none" xmlns="http://www.w3.org/2000/svg"><defs><rect id="l" width="400" height="2" fill="white"/></defs><rect width="1000" height="1000" fill="#0A0A0A"/><use href="#l" x="300" y="200"/><use href="#l" x="300" y="211"/><use href="#l" x="300" y="223"/><use href="#l" x="300" y="235"/><use href="#l" x="300" y="246"/><use href="#l" x="300" y="258"/><use href="#l" x="300" y="269"/><use href="#l" x="300" y="280"/><use href="#l" x="300" y="291"/><use href="#l" x="300" y="302"/><use href="#l" x="300" y="313"/><use href="#l" x="300" y="323"/><use href="#l" x="300" y="334"/><use href="#l" x="300" y="344"/><use href="#l" x="300" y="354"/><use href="#l" x="300" y="365"/><use href="#l" x="300" y="375"/><use href="#l" x="300" y="385"/><use href="#l" x="300" y="395"/><use href="#l" x="300" y="405"/><use href="#l" x="300" y="414"/><use href="#l" x="300" y="423"/><use href="#l" x="300" y="432"/><use href="#l" x="300" y="442"/><use href="#l" x="300" y="451"/><use href="#l" x="300" y="460"/><use href="#l" x="300" y="469"/><use href="#l" x="300" y="478"/><use href="#l" x="300" y="486"/><use href="#l" x="300" y="495"/><use href="#l" x="300" y="503"/><use href="#l" x="300" y="511"/><use href="#l" x="300" y="519"/><use href="#l" x="300" y="527"/><use href="#l" x="300" y="535"/><use href="#l" x="300" y="543"/><use href="#l" x="300" y="551"/><use href="#l" x="300" y="559"/><use href="#l" x="300" y="566"/><use href="#l" x="300" y="574"/><use href="#l" x="300" y="581"/><use href="#l" x="300" y="587"/><use href="#l" x="300" y="595"/><use href="#l" x="300" y="601"/><use href="#l" x="300" y="608"/><use href="#l" x="300" y="615"/><use href="#l" x="300" y="622"/><use href="#l" x="300" y="628"/><use href="#l" x="300" y="634"/><use href="#l" x="300" y="641"/><use href="#l" x="300" y="647"/><use href="#l" x="300" y="652"/><use href="#l" x="300" y="658"/><use href="#l" x="300" y="664"/><use href="#l" x="300" y="669"/><use href="#l" x="300" y="675"/><use href="#l" x="300" y="680"/><use href="#l" x="300" y="686"/><use href="#l" x="300" y="691"/><use href="#l" x="300" y="696"/><use href="#l" x="300" y="701"/><use href="#l" x="300" y="705"/><use href="#l" x="300" y="710"/><use href="#l" x="300" y="714"/><use href="#l" x="300" y="719"/><use href="#l" x="300" y="723"/><use href="#l" x="300" y="727"/><use href="#l" x="300" y="731"/><use href="#l" x="300" y="735"/><use href="#l" x="300" y="739"/><use href="#l" x="300" y="743"/><use href="#l" x="300" y="746"/><use href="#l" x="300" y="750"/><use href="#l" x="300" y="753"/><use href="#l" x="300" y="756"/><use href="#l" x="300" y="760"/><use href="#l" x="300" y="763"/><use href="#l" x="300" y="766"/><use href="#l" x="300" y="768"/><use href="#l" x="300" y="771"/><use href="#l" x="300" y="774"/><use href="#l" x="300" y="776"/><use href="#l" x="300" y="778"/><use href="#l" x="300" y="780"/><use href="#l" x="300" y="782"/><use href="#l" x="300" y="784"/><use href="#l" x="300" y="786"/><use href="#l" x="300" y="788"/><use href="#l" x="300" y="790"/><use href="#l" x="300" y="791"/><use href="#l" x="300" y="792"/><use href="#l" x="300" y="794"/><use href="#l" x="300" y="795"/><use href="#l" x="300" y="796"/><use href="#l" x="300" y="797"/><use href="#l" x="300" y="797"/><use href="#l" x="300" y="798"/><use href="#l" x="300" y="799"/><use href="#l" x="300" y="799"/><use href="#l" x="300" y="799"/><use href="#l" x="300" y="799"/><use href="#l" x="300" y="799"/></svg>