<svg width="4000" height="4000" viewBox="0 0 1000 1000" fill="none" xmlns="http://www.w3.org/2000/svg"><defs><rect id="l" width="400" height="1" fill="white"/></defs><rect width="1000" height="1000" fill="#0A0A0A"/><use href="#l" x="300" y="200"/><use href="#l" x="300" y="200"/><use href="#l" x="300" y="200"/><use href="#l" x="300" y="200"/><use href="#l" x="300" y="200"/><use href="#l" x="300" y="200"/><use href="#l" x="300" y="200"/><use href="#l" x="300" y="201"/><use href="#l" x="300" y="201"/><use href="#l" x="300" y="202"/><use href="#l" x="300" y="202"/><use href="#l" x="300" y="203"/><use href="#l" x="300" y="203"/><use href="#l" x="300" y="204"/><use href="#l" x="300" y="205"/><use href="#l" x="300" y="205"/><use href="#l" x="300" y="206"/><use href="#l" x="300" y="207"/><use href="#l" x="300" y="208"/><use href="#l" x="300" y="209"/><use href="#l" x="300" y="210"/><use href="#l" x="300" y="211"/><use href="#l" x="300" y="212"/><use href="#l" x="300" y="213"/><use href="#l" x="300" y="214"/><use href="#l" x="300" y="216"/><use href="#l" x="300" y="217"/><use href="#l" x="300" y="218"/><use href="#l" x="300" y="220"/><use href="#l" x="300" y="222"/><use href="#l" x="300" y="223"/><use href="#l" x="300" y="225"/><use href="#l" x="300" y="226"/><use href="#l" x="300" y="228"/><use href="#l" x="300" y="230"/><use href="#l" x="300" y="231"/><use href="#l" x="300" y="233"/><use href="#l" x="300" y="235"/><use href="#l" x="300" y="237"/><use href="#l" x="300" y="239"/><use href="#l" x="300" y="241"/><use href="#l" x="300" y="243"/><use href="#l" x="300" y="246"/><use href="#l" x="300" y="248"/><use href="#l" x="300" y="250"/><use href="#l" x="300" y="253"/><use href="#l" x="300" y="255"/><use href="#l" x="300" y="257"/><use href="#l" x="300" y="260"/><use href="#l" x="300" y="262"/><use href="#l" x="300" y="265"/><use href="#l" x="300" y="268"/><use href="#l" x="300" y="270"/><use href="#l" x="300" y="273"/><use href="#l" x="300" y="276"/><use href="#l" x="300" y="279"/><use href="#l" x="300" y="282"/><use href="#l" x="300" y="285"/><use href="#l" x="300" y="288"/><use href="#l" x="300" y="291"/><use href="#l" x="300" y="294"/><use href="#l" x="300" y="297"/><use href="#l" x="300" y="300"/><use href="#l" x="300" y="304"/><use href="#l" x="300" y="307"/><use href="#l" x="300" y="310"/><use href="#l" x="300" y="314"/><use href="#l" x="300" y="317"/><use href="#l" x="300" y="321"/><use href="#l" x="300" y="324"/><use href="#l" x="300" y="328"/><use href="#l" x="300" y="332"/><use href="#l" x="300" y="335"/><use href="#l" x="300" y="339"/><use href="#l" x="300" y="343"/><use href="#l" x="300" y="347"/><use href="#l" x="300" y="351"/><use href="#l" x="300" y="355"/><use href="#l" x="300" y="359"/><use href="#l" x="300" y="363"/><use href="#l" x="300" y="367"/><use href="#l" x="300" y="372"/><use href="#l" x="300" y="376"/><use href="#l" x="300" y="380"/><use href="#l" x="300" y="385"/><use href="#l" x="300" y="389"/><use href="#l" x="300" y="393"/><use href="#l" x="300" y="398"/><use href="#l" x="300" y="402"/><use href="#l" x="300" y="407"/><use href="#l" x="300" y="412"/><use href="#l" x="300" y="417"/><use href="#l" x="300" y="422"/><use href="#l" x="300" y="426"/><use href="#l" x="300" y="431"/><use href="#l" x="300" y="436"/><use href="#l" x="300" y="441"/><use href="#l" x="300" y="446"/><use href="#l" x="300" y="452"/><use href="#l" x="300" y="456"/><use href="#l" x="300" y="462"/><use href="#l" x="300" y="467"/><use href="#l" x="300" y="472"/><use href="#l" x="300" y="478"/><use href="#l" x="300" y="483"/><use href="#l" x="300" y="489"/><use href="#l" x="300" y="494"/><use href="#l" x="300" y="500"/><use href="#l" x="300" y="506"/><use href="#l" x="300" y="511"/><use href="#l" x="300" y="517"/><use href="#l" x="300" y="523"/><use href="#l" x="300" y="528"/><use href="#l" x="300" y="535"/><use href="#l" x="300" y="540"/><use href="#l" x="300" y="546"/><use href="#l" x="300" y="553"/><use href="#l" x="300" y="558"/><use href="#l" x="300" y="565"/><use href="#l" x="300" y="571"/><use href="#l" x="300" y="577"/><use href="#l" x="300" y="584"/><use href="#l" x="300" y="590"/><use href="#l" x="300" y="596"/><use href="#l" x="300" y="603"/><use href="#l" x="300" y="609"/><use href="#l" x="300" y="616"/><use href="#l" x="300" y="623"/><use href="#l" x="300" y="629"/><use href="#l" x="300" y="636"/><use href="#l" x="300" y="643"/><use href="#l" x="300" y="650"/><use href="#l" x="300" y="657"/><use href="#l" x="300" y="663"/><use href="#l" x="300" y="671"/><use href="#l" x="300" y="678"/><use href="#l" x="300" y="685"/><use href="#l" x="300" y="692"/><use href="#l" x="300" y="699"/><use href="#l" x="300" y="706"/><use href="#l" x="300" y="714"/><use href="#l" x="300" y="721"/><use href="#l" x="300" y="729"/><use href="#l" x="300" y="737"/><use href="#l" x="300" y="744"/><use href="#l" x="300" y="752"/><use href="#l" x="300" y="758"/><use href="#l" x="300" y="767"/><use href="#l" x="300" y="775"/><use href="#l" x="300" y="782"/><use href="#l" x="300" y="790"/><use href="#l" x="300" y="799"/></svg>