<svg width="4000" height="4000" viewBox="0 0 1000 1000" fill="none" xmlns="http://www.w3.org/2000/svg"><defs><rect id="l" width="400" height="1" fill="white"/></defs><rect width="1000" height="1000" fill="#0A0A0A"/><use href="#l" x="300" y="200"/><use href="#l" x="300" y="209"/><use href="#l" x="300" y="217"/><use href="#l" x="300" y="226"/><use href="#l" x="300" y="234"/><use href="#l" x="300" y="243"/><use href="#l" x="300" y="251"/><use href="#l" x="300" y="260"/><use href="#l" x="300" y="268"/><use href="#l" x="300" y="277"/><use href="#l" x="300" y="286"/><use href="#l" x="300" y="294"/><use href="#l" x="300" y="303"/><use href="#l" x="300" y="311"/><use href="#l" x="300" y="320"/><use href="#l" x="300" y="328"/><use href="#l" x="300" y="337"/><use href="#l" x="300" y="345"/><use href="#l" x="300" y="354"/><use href="#l" x="300" y="363"/><use href="#l" x="300" y="371"/><use href="#l" x="300" y="380"/><use href="#l" x="300" y="388"/><use href="#l" x="300" y="397"/><use href="#l" x="300" y="405"/><use href="#l" x="300" y="414"/><use href="#l" x="300" y="422"/><use href="#l" x="300" y="431"/><use href="#l" x="300" y="440"/><use href="#l" x="300" y="448"/><use href="#l" x="300" y="457"/><use href="#l" x="300" y="465"/><use href="#l" x="300" y="474"/><use href="#l" x="300" y="482"/><use href="#l" x="300" y="491"/><use href="#l" x="300" y="500"/><use href="#l" x="300" y="508"/><use href="#l" x="300" y="517"/><use href="#l" x="300" y="525"/><use href="#l" x="300" y="534"/><use href="#l" x="300" y="542"/><use href="#l" x="300" y="551"/><use href="#l" x="300" y="559"/><use href="#l" x="300" y="568"/><use href="#l" x="300" y="577"/><use href="#l" x="300" y="585"/><use href="#l" x="300" y="594"/><use href="#l" x="300" y="602"/><use href="#l" x="300" y="611"/><use href="#l" x="300" y="619"/><use href="#l" x="300" y="628"/><use href="#l" x="300" y="636"/><use href="#l" x="300" y="645"/><use href="#l" x="300" y="654"/><use href="#l" x="300" y="662"/><use href="#l" x="300" y="671"/><use href="#l" x="300" y="679"/><use href="#l" x="300" y="688"/><use href="#l" x="300" y="696"/><use href="#l" x="300" y="705"/><use href="#l" x="300" y="713"/><use href="#l" x="300" y="722"/><use href="#l" x="300" y="731"/><use href="#l" x="300" y="739"/><use href="#l" x="300" y="748"/><use href="#l" x="300" y="756"/><use href="#l" x="300" y="765"/><use href="#l" x="300" y="773"/><use href="#l" x="300" y="782"/><use href="#l" x="300" y="790"/><use href="#l" x="300" y="799"/></svg>