<svg width="4000" height="4000" viewBox="0 0 1000 1000" fill="none" xmlns="http://www.w3.org/2000/svg"><defs><rect id="l" width="400" height="1" fill="white"/></defs><rect width="1000" height="1000" fill="#0A0A0A"/><use href="#l" x="300" y="200"/><use href="#l" x="300" y="200"/><use href="#l" x="300" y="200"/><use href="#l" x="300" y="201"/><use href="#l" x="300" y="201"/><use href="#l" x="300" y="203"/><use href="#l" x="300" y="204"/><use href="#l" x="300" y="205"/><use href="#l" x="300" y="207"/><use href="#l" x="300" y="209"/><use href="#l" x="300" y="212"/><use href="#l" x="300" y="214"/><use href="#l" x="300" y="217"/><use href="#l" x="300" y="220"/><use href="#l" x="300" y="223"/><use href="#l" x="300" y="227"/><use href="#l" x="300" y="231"/><use href="#l" x="300" y="235"/><use href="#l" x="300" y="239"/><use href="#l" x="300" y="243"/><use href="#l" x="300" y="248"/><use href="#l" x="300" y="253"/><use href="#l" x="300" y="259"/><use href="#l" x="300" y="264"/><use href="#l" x="300" y="270"/><use href="#l" x="300" y="276"/><use href="#l" x="300" y="282"/><use href="#l" x="300" y="288"/><use href="#l" x="300" y="295"/><use href="#l" x="300" y="302"/><use href="#l" x="300" y="309"/><use href="#l" x="300" y="317"/><use href="#l" x="300" y="325"/><use href="#l" x="300" y="332"/><use href="#l" x="300" y="340"/><use href="#l" x="300" y="349"/><use href="#l" x="300" y="358"/><use href="#l" x="300" y="366"/><use href="#l" x="300" y="375"/><use href="#l" x="300" y="385"/><use href="#l" x="300" y="395"/><use href="#l" x="300" y="404"/><use href="#l" x="300" y="415"/><use href="#l" x="300" y="425"/><use href="#l" x="300" y="436"/><use href="#l" x="300" y="446"/><use href="#l" x="300" y="458"/><use href="#l" x="300" y="469"/><use href="#l" x="300" y="481"/><use href="#l" x="300" y="493"/><use href="#l" x="300" y="505"/><use href="#l" x="300" y="517"/><use href="#l" x="300" y="529"/><use href="#l" x="300" y="543"/><use href="#l" x="300" y="556"/><use href="#l" x="300" y="569"/><use href="#l" x="300" y="583"/><use href="#l" x="300" y="596"/><use href="#l" x="300" y="610"/><use href="#l" x="300" y="624"/><use href="#l" x="300" y="639"/><use href="#l" x="300" y="654"/><use href="#l" x="300" y="669"/><use href="#l" x="300" y="685"/><use href="#l" x="300" y="700"/><use href="#l" x="300" y="715"/><use href="#l" x="300" y="731"/><use href="#l" x="300" y="748"/><use href="#l" x="300" y="764"/><use href="#l" x="300" y="781"/><use href="#l" x="300" y="799"/></svg>