<svg width="4000" height="4000" viewBox="0 0 1000 1000" fill="none" xmlns="http://www.w3.org/2000/svg"><defs><rect id="l" width="400" height="1" fill="white"/></defs><rect width="1000" height="1000" fill="#0A0A0A"/><use href="#l" x="300" y="200"/><use href="#l" x="300" y="206"/><use href="#l" x="300" y="212"/><use href="#l" x="300" y="218"/><use href="#l" x="300" y="224"/><use href="#l" x="300" y="230"/><use href="#l" x="300" y="236"/><use href="#l" x="300" y="242"/><use href="#l" x="300" y="247"/><use href="#l" x="300" y="253"/><use href="#l" x="300" y="259"/><use href="#l" x="300" y="265"/><use href="#l" x="300" y="271"/><use href="#l" x="300" y="277"/><use href="#l" x="300" y="283"/><use href="#l" x="300" y="289"/><use href="#l" x="300" y="295"/><use href="#l" x="300" y="301"/><use href="#l" x="300" y="307"/><use href="#l" x="300" y="313"/><use href="#l" x="300" y="319"/><use href="#l" x="300" y="325"/><use href="#l" x="300" y="330"/><use href="#l" x="300" y="336"/><use href="#l" x="300" y="342"/><use href="#l" x="300" y="348"/><use href="#l" x="300" y="354"/><use href="#l" x="300" y="360"/><use href="#l" x="300" y="366"/><use href="#l" x="300" y="372"/><use href="#l" x="300" y="378"/><use href="#l" x="300" y="384"/><use href="#l" x="300" y="390"/><use href="#l" x="300" y="396"/><use href="#l" x="300" y="402"/><use href="#l" x="300" y="408"/><use href="#l" x="300" y="414"/><use href="#l" x="300" y="419"/><use href="#l" x="300" y="425"/><use href="#l" x="300" y="431"/><use href="#l" x="300" y="437"/><use href="#l" x="300" y="443"/><use href="#l" x="300" y="449"/><use href="#l" x="300" y="455"/><use href="#l" x="300" y="461"/><use href="#l" x="300" y="467"/><use href="#l" x="300" y="473"/><use href="#l" x="300" y="479"/><use href="#l" x="300" y="485"/><use href="#l" x="300" y="491"/><use href="#l" x="300" y="497"/><use href="#l" x="300" y="502"/><use href="#l" x="300" y="508"/><use href="#l" x="300" y="514"/><use href="#l" x="300" y="520"/><use href="#l" x="300" y="526"/><use href="#l" x="300" y="532"/><use href="#l" x="300" y="538"/><use href="#l" x="300" y="544"/><use href="#l" x="300" y="550"/><use href="#l" x="300" y="556"/><use href="#l" x="300" y="562"/><use href="#l" x="300" y="568"/><use href="#l" x="300" y="574"/><use href="#l" x="300" y="580"/><use href="#l" x="300" y="585"/><use href="#l" x="300" y="591"/><use href="#l" x="300" y="597"/><use href="#l" x="300" y="603"/><use href="#l" x="300" y="609"/><use href="#l" x="300" y="615"/><use href="#l" x="300" y="621"/><use href="#l" x="300" y="627"/><use href="#l" x="300" y="633"/><use href="#l" x="300" y="639"/><use href="#l" x="300" y="645"/><use href="#l" x="300" y="651"/><use href="#l" x="300" y="657"/><use href="#l" x="300" y="663"/><use href="#l" x="300" y="669"/><use href="#l" x="300" y="674"/><use href="#l" x="300" y="680"/><use href="#l" x="300" y="686"/><use href="#l" x="300" y="692"/><use href="#l" x="300" y="698"/><use href="#l" x="300" y="704"/><use href="#l" x="300" y="710"/><use href="#l" x="300" y="716"/><use href="#l" x="300" y="722"/><use href="#l" x="300" y="728"/><use href="#l" x="300" y="734"/><use href="#l" x="300" y="740"/><use href="#l" x="300" y="746"/><use href="#l" x="300" y="752"/><use href="#l" x="300" y="757"/><use href="#l" x="300" y="763"/><use href="#l" x="300" y="769"/><use href="#l" x="300" y="775"/><use href="#l" x="300" y="781"/><use href="#l" x="300" y="787"/><use href="#l" x="300" y="793"/><use href="#l" x="300" y="799"/></svg>