<svg width="4000" height="4000" viewBox="0 0 1000 1000" fill="none" xmlns="http://www.w3.org/2000/svg"><defs><rect id="l" width="400" height="1" fill="white"/></defs><rect width="1000" height="1000" fill="#0A0A0A"/><use href="#l" x="300" y="200"/><use href="#l" x="300" y="215"/><use href="#l" x="300" y="229"/><use href="#l" x="300" y="244"/><use href="#l" x="300" y="258"/><use href="#l" x="300" y="273"/><use href="#l" x="300" y="288"/><use href="#l" x="300" y="302"/><use href="#l" x="300" y="317"/><use href="#l" x="300" y="331"/><use href="#l" x="300" y="346"/><use href="#l" x="300" y="361"/><use href="#l" x="300" y="375"/><use href="#l" x="300" y="390"/><use href="#l" x="300" y="405"/><use href="#l" x="300" y="419"/><use href="#l" x="300" y="434"/><use href="#l" x="300" y="448"/><use href="#l" x="300" y="463"/><use href="#l" x="300" y="478"/><use href="#l" x="300" y="492"/><use href="#l" x="300" y="507"/><use href="#l" x="300" y="521"/><use href="#l" x="300" y="536"/><use href="#l" x="300" y="551"/><use href="#l" x="300" y="565"/><use href="#l" x="300" y="580"/><use href="#l" x="300" y="594"/><use href="#l" x="300" y="609"/><use href="#l" x="300" y="624"/><use href="#l" x="300" y="638"/><use href="#l" x="300" y="653"/><use href="#l" x="300" y="668"/><use href="#l" x="300" y="682"/><use href="#l" x="300" y="697"/><use href="#l" x="300" y="711"/><use href="#l" x="300" y="726"/><use href="#l" x="300" y="741"/><use href="#l" x="300" y="755"/><use href="#l" x="300" y="770"/><use href="#l" x="300" y="784"/><use href="#l" x="300" y="799"/></svg>