<svg width="4000" height="4000" viewBox="0 0 1000 1000" fill="none" xmlns="http://www.w3.org/2000/svg"><defs><rect id="l" width="400" height="2" fill="white"/></defs><rect width="1000" height="1000" fill="#0A0A0A"/><use href="#l" x="300" y="200"/><use href="#l" x="300" y="203"/><use href="#l" x="300" y="205"/><use href="#l" x="300" y="209"/><use href="#l" x="300" y="211"/><use href="#l" x="300" y="215"/><use href="#l" x="300" y="217"/><use href="#l" x="300" y="221"/><use href="#l" x="300" y="223"/><use href="#l" x="300" y="227"/><use href="#l" x="300" y="229"/><use href="#l" x="300" y="232"/><use href="#l" x="300" y="235"/><use href="#l" x="300" y="238"/><use href="#l" x="300" y="241"/><use href="#l" x="300" y="244"/><use href="#l" x="300" y="246"/><use href="#l" x="300" y="250"/><use href="#l" x="300" y="252"/><use href="#l" x="300" y="255"/><use href="#l" x="300" y="258"/><use href="#l" x="300" y="261"/><use href="#l" x="300" y="263"/><use href="#l" x="300" y="267"/><use href="#l" x="300" y="269"/><use href="#l" x="300" y="272"/><use href="#l" x="300" y="275"/><use href="#l" x="300" y="278"/><use href="#l" x="300" y="280"/><use href="#l" x="300" y="284"/><use href="#l" x="300" y="286"/><use href="#l" x="300" y="289"/><use href="#l" x="300" y="291"/><use href="#l" x="300" y="295"/><use href="#l" x="300" y="297"/><use href="#l" x="300" y="300"/><use href="#l" x="300" y="302"/><use href="#l" x="300" y="306"/><use href="#l" x="300" y="308"/><use href="#l" x="300" y="311"/><use href="#l" x="300" y="313"/><use href="#l" x="300" y="316"/><use href="#l" x="300" y="319"/><use href="#l" x="300" y="322"/><use href="#l" x="300" y="324"/><use href="#l" x="300" y="327"/><use href="#l" x="300" y="329"/><use href="#l" x="300" y="332"/><use href="#l" x="300" y="335"/><use href="#l" x="300" y="338"/><use href="#l" x="300" y="340"/><use href="#l" x="300" y="343"/><use href="#l" x="300" y="345"/><use href="#l" x="300" y="348"/><use href="#l" x="300" y="350"/><use href="#l" x="300" y="353"/><use href="#l" x="300" y="355"/><use href="#l" x="300" y="359"/><use href="#l" x="300" y="361"/><use href="#l" x="300" y="364"/><use href="#l" x="300" y="366"/><use href="#l" x="300" y="369"/><use href="#l" x="300" y="371"/><use href="#l" x="300" y="374"/><use href="#l" x="300" y="376"/><use href="#l" x="300" y="379"/><use href="#l" x="300" y="381"/><use href="#l" x="300" y="384"/><use href="#l" x="300" y="386"/><use href="#l" x="300" y="389"/><use href="#l" x="300" y="391"/><use href="#l" x="300" y="394"/><use href="#l" x="300" y="396"/><use href="#l" x="300" y="399"/><use href="#l" x="300" y="401"/><use href="#l" x="300" y="404"/><use href="#l" x="300" y="406"/><use href="#l" x="300" y="408"/><use href="#l" x="300" y="410"/><use href="#l" x="300" y="413"/><use href="#l" x="300" y="415"/><use href="#l" x="300" y="417"/><use href="#l" x="300" y="420"/><use href="#l" x="300" y="422"/><use href="#l" x="300" y="425"/><use href="#l" x="300" y="427"/><use href="#l" x="300" y="429"/><use href="#l" x="300" y="431"/><use href="#l" x="300" y="434"/><use href="#l" x="300" y="436"/><use href="#l" x="300" y="439"/><use href="#l" x="300" y="441"/><use href="#l" x="300" y="443"/><use href="#l" x="300" y="445"/><use href="#l" x="300" y="448"/><use href="#l" x="300" y="450"/><use href="#l" x="300" y="453"/><use href="#l" x="300" y="454"/><use href="#l" x="300" y="457"/><use href="#l" x="300" y="459"/><use href="#l" x="300" y="462"/><use href="#l" x="300" y="463"/><use href="#l" x="300" y="466"/><use href="#l" x="300" y="468"/><use href="#l" x="300" y="471"/><use href="#l" x="300" y="472"/><use href="#l" x="300" y="475"/><use href="#l" x="300" y="477"/><use href="#l" x="300" y="479"/><use href="#l" x="300" y="481"/><use href="#l" x="300" y="484"/><use href="#l" x="300" y="486"/><use href="#l" x="300" y="488"/><use href="#l" x="300" y="490"/><use href="#l" x="300" y="492"/><use href="#l" x="300" y="494"/><use href="#l" x="300" y="497"/><use href="#l" x="300" y="498"/><use href="#l" x="300" y="501"/><use href="#l" x="300" y="503"/><use href="#l" x="300" y="505"/><use href="#l" x="300" y="507"/><use href="#l" x="300" y="509"/><use href="#l" x="300" y="511"/><use href="#l" x="300" y="513"/><use href="#l" x="300" y="515"/><use href="#l" x="300" y="518"/><use href="#l" x="300" y="519"/><use href="#l" x="300" y="522"/><use href="#l" x="300" y="523"/><use href="#l" x="300" y="526"/><use href="#l" x="300" y="527"/><use href="#l" x="300" y="530"/><use href="#l" x="300" y="531"/><use href="#l" x="300" y="534"/><use href="#l" x="300" y="535"/><use href="#l" x="300" y="538"/><use href="#l" x="300" y="539"/><use href="#l" x="300" y="542"/><use href="#l" x="300" y="543"/><use href="#l" x="300" y="546"/><use href="#l" x="300" y="547"/><use href="#l" x="300" y="550"/><use href="#l" x="300" y="551"/><use href="#l" x="300" y="553"/><use href="#l" x="300" y="555"/><use href="#l" x="300" y="557"/><use href="#l" x="300" y="559"/><use href="#l" x="300" y="561"/><use href="#l" x="300" y="563"/><use href="#l" x="300" y="565"/><use href="#l" x="300" y="566"/><use href="#l" x="300" y="569"/><use href="#l" x="300" y="570"/><use href="#l" x="300" y="572"/><use href="#l" x="300" y="574"/><use href="#l" x="300" y="576"/><use href="#l" x="300" y="577"/><use href="#l" x="300" y="580"/><use href="#l" x="300" y="581"/><use href="#l" x="300" y="583"/><use href="#l" x="300" y="585"/><use href="#l" x="300" y="586"/><use href="#l" x="300" y="588"/><use href="#l" x="300" y="590"/><use href="#l" x="300" y="592"/><use href="#l" x="300" y="593"/><use href="#l" x="300" y="595"/><use href="#l" x="300" y="597"/><use href="#l" x="300" y="599"/><use href="#l" x="300" y="600"/><use href="#l" x="300" y="602"/><use href="#l" x="300" y="604"/><use href="#l" x="300" y="606"/><use href="#l" x="300" y="607"/><use href="#l" x="300" y="609"/><use href="#l" x="300" y="610"/><use href="#l" x="300" y="612"/><use href="#l" x="300" y="614"/><use href="#l" x="300" y="616"/><use href="#l" x="300" y="617"/><use href="#l" x="300" y="619"/><use href="#l" x="300" y="620"/><use href="#l" x="300" y="622"/><use href="#l" x="300" y="624"/><use href="#l" x="300" y="625"/><use href="#l" x="300" y="627"/><use href="#l" x="300" y="629"/><use href="#l" x="300" y="630"/><use href="#l" x="300" y="632"/><use href="#l" x="300" y="633"/><use href="#l" x="300" y="635"/><use href="#l" x="300" y="636"/><use href="#l" x="300" y="638"/><use href="#l" x="300" y="639"/><use href="#l" x="300" y="641"/><use href="#l" x="300" y="642"/><use href="#l" x="300" y="644"/><use href="#l" x="300" y="646"/><use href="#l" x="300" y="647"/><use href="#l" x="300" y="649"/><use href="#l" x="300" y="650"/><use href="#l" x="300" y="652"/><use href="#l" x="300" y="653"/><use href="#l" x="300" y="655"/><use href="#l" x="300" y="656"/><use href="#l" x="300" y="657"/><use href="#l" x="300" y="659"/><use href="#l" x="300" y="660"/><use href="#l" x="300" y="662"/><use href="#l" x="300" y="663"/><use href="#l" x="300" y="665"/><use href="#l" x="300" y="666"/><use href="#l" x="300" y="668"/><use href="#l" x="300" y="669"/><use href="#l" x="300" y="671"/><use href="#l" x="300" y="672"/><use href="#l" x="300" y="673"/><use href="#l" x="300" y="674"/><use href="#l" x="300" y="676"/><use href="#l" x="300" y="677"/><use href="#l" x="300" y="679"/><use href="#l" x="300" y="680"/><use href="#l" x="300" y="681"/><use href="#l" x="300" y="682"/><use href="#l" x="300" y="684"/><use href="#l" x="300" y="685"/><use href="#l" x="300" y="687"/><use href="#l" x="300" y="688"/><use href="#l" x="300" y="689"/><use href="#l" x="300" y="690"/><use href="#l" x="300" y="692"/><use href="#l" x="300" y="693"/><use href="#l" x="300" y="694"/><use href="#l" x="300" y="695"/><use href="#l" x="300" y="697"/><use href="#l" x="300" y="698"/><use href="#l" x="300" y="699"/><use href="#l" x="300" y="700"/><use href="#l" x="300" y="702"/><use href="#l" x="300" y="703"/><use href="#l" x="300" y="704"/><use href="#l" x="300" y="705"/><use href="#l" x="300" y="706"/><use href="#l" x="300" y="707"/><use href="#l" x="300" y="708"/><use href="#l" x="300" y="710"/><use href="#l" x="300" y="711"/><use href="#l" x="300" y="712"/><use href="#l" x="300" y="713"/><use href="#l" x="300" y="714"/><use href="#l" x="300" y="715"/><use href="#l" x="300" y="717"/><use href="#l" x="300" y="717"/><use href="#l" x="300" y="719"/><use href="#l" x="300" y="720"/><use href="#l" x="300" y="721"/><use href="#l" x="300" y="722"/><use href="#l" x="300" y="723"/><use href="#l" x="300" y="724"/><use href="#l" x="300" y="725"/><use href="#l" x="300" y="726"/><use href="#l" x="300" y="727"/><use href="#l" x="300" y="728"/><use href="#l" x="300" y="729"/><use href="#l" x="300" y="730"/><use href="#l" x="300" y="731"/><use href="#l" x="300" y="732"/><use href="#l" x="300" y="733"/><use href="#l" x="300" y="734"/><use href="#l" x="300" y="735"/><use href="#l" x="300" y="736"/><use href="#l" x="300" y="737"/><use href="#l" x="300" y="738"/><use href="#l" x="300" y="739"/><use href="#l" x="300" y="740"/><use href="#l" x="300" y="741"/><use href="#l" x="300" y="742"/><use href="#l" x="300" y="743"/><use href="#l" x="300" y="744"/><use href="#l" x="300" y="745"/><use href="#l" x="300" y="746"/><use href="#l" x="300" y="747"/><use href="#l" x="300" y="747"/><use href="#l" x="300" y="748"/><use href="#l" x="300" y="749"/><use href="#l" x="300" y="750"/><use href="#l" x="300" y="751"/><use href="#l" x="300" y="752"/><use href="#l" x="300" y="753"/><use href="#l" x="300" y="754"/><use href="#l" x="300" y="754"/><use href="#l" x="300" y="755"/><use href="#l" x="300" y="756"/><use href="#l" x="300" y="757"/><use href="#l" x="300" y="757"/><use href="#l" x="300" y="758"/><use href="#l" x="300" y="759"/><use href="#l" x="300" y="760"/><use href="#l" x="300" y="761"/><use href="#l" x="300" y="761"/><use href="#l" x="300" y="762"/><use href="#l" x="300" y="763"/><use href="#l" x="300" y="764"/><use href="#l" x="300" y="764"/><use href="#l" x="300" y="765"/><use href="#l" x="300" y="766"/><use href="#l" x="300" y="766"/><use href="#l" x="300" y="767"/><use href="#l" x="300" y="768"/><use href="#l" x="300" y="769"/><use href="#l" x="300" y="769"/><use href="#l" x="300" y="770"/><use href="#l" x="300" y="771"/><use href="#l" x="300" y="771"/><use href="#l" x="300" y="772"/><use href="#l" x="300" y="773"/><use href="#l" x="300" y="773"/><use href="#l" x="300" y="774"/><use href="#l" x="300" y="774"/><use href="#l" x="300" y="775"/><use href="#l" x="300" y="776"/><use href="#l" x="300" y="776"/><use href="#l" x="300" y="777"/><use href="#l" x="300" y="777"/><use href="#l" x="300" y="778"/><use href="#l" x="300" y="778"/><use href="#l" x="300" y="779"/><use href="#l" x="300" y="779"/><use href="#l" x="300" y="780"/><use href="#l" x="300" y="781"/><use href="#l" x="300" y="781"/><use href="#l" x="300" y="782"/><use href="#l" x="300" y="782"/><use href="#l" x="300" y="783"/><use href="#l" x="300" y="783"/><use href="#l" x="300" y="784"/><use href="#l" x="300" y="784"/><use href="#l" x="300" y="785"/><use href="#l" x="300" y="785"/><use href="#l" x="300" y="785"/><use href="#l" x="300" y="786"/><use href="#l" x="300" y="786"/><use href="#l" x="300" y="787"/><use href="#l" x="300" y="787"/><use href="#l" x="300" y="788"/><use href="#l" x="300" y="788"/><use href="#l" x="300" y="789"/><use href="#l" x="300" y="789"/><use href="#l" x="300" y="789"/><use href="#l" x="300" y="790"/><use href="#l" x="300" y="790"/><use href="#l" x="300" y="790"/><use href="#l" x="300" y="791"/><use href="#l" x="300" y="791"/><use href="#l" x="300" y="792"/><use href="#l" x="300" y="792"/><use href="#l" x="300" y="792"/><use href="#l" x="300" y="793"/><use href="#l" x="300" y="793"/><use href="#l" x="300" y="793"/><use href="#l" x="300" y="794"/><use href="#l" x="300" y="794"/><use href="#l" x="300" y="794"/><use href="#l" x="300" y="794"/><use href="#l" x="300" y="795"/><use href="#l" x="300" y="795"/><use href="#l" x="300" y="795"/><use href="#l" x="300" y="795"/><use href="#l" x="300" y="796"/><use href="#l" x="300" y="796"/><use href="#l" x="300" y="796"/><use href="#l" x="300" y="796"/><use href="#l" x="300" y="797"/><use href="#l" x="300" y="797"/><use href="#l" x="300" y="797"/><use href="#l" x="300" y="797"/><use href="#l" x="300" y="797"/><use href="#l" x="300" y="797"/><use href="#l" x="300" y="798"/><use href="#l" x="300" y="798"/><use href="#l" x="300" y="798"/><use href="#l" x="300" y="798"/><use href="#l" x="300" y="798"/><use href="#l" x="300" y="798"/><use href="#l" x="300" y="799"/><use href="#l" x="300" y="799"/><use href="#l" x="300" y="799"/><use href="#l" x="300" y="799"/><use href="#l" x="300" y="799"/><use href="#l" x="300" y="799"/><use href="#l" x="300" y="799"/><use href="#l" x="300" y="799"/><use href="#l" x="300" y="799"/><use href="#l" x="300" y="799"/><use href="#l" x="300" y="799"/><use href="#l" x="300" y="799"/><use href="#l" x="300" y="799"/><use href="#l" x="300" y="799"/><use href="#l" x="300" y="799"/><use href="#l" x="300" y="799"/><use href="#l" x="300" y="799"/></svg>