<svg width="4000" height="4000" viewBox="0 0 1000 1000" fill="none" xmlns="http://www.w3.org/2000/svg"><defs><rect id="l" width="400" height="1" fill="white"/></defs><rect width="1000" height="1000" fill="#0A0A0A"/><use href="#l" x="300" y="200"/><use href="#l" x="300" y="200"/><use href="#l" x="300" y="201"/><use href="#l" x="300" y="203"/><use href="#l" x="300" y="205"/><use href="#l" x="300" y="208"/><use href="#l" x="300" y="212"/><use href="#l" x="300" y="217"/><use href="#l" x="300" y="222"/><use href="#l" x="300" y="228"/><use href="#l" x="300" y="235"/><use href="#l" x="300" y="243"/><use href="#l" x="300" y="251"/><use href="#l" x="300" y="260"/><use href="#l" x="300" y="269"/><use href="#l" x="300" y="279"/><use href="#l" x="300" y="291"/><use href="#l" x="300" y="302"/><use href="#l" x="300" y="315"/><use href="#l" x="300" y="328"/><use href="#l" x="300" y="342"/><use href="#l" x="300" y="357"/><use href="#l" x="300" y="372"/><use href="#l" x="300" y="387"/><use href="#l" x="300" y="404"/><use href="#l" x="300" y="422"/><use href="#l" x="300" y="440"/><use href="#l" x="300" y="459"/><use href="#l" x="300" y="478"/><use href="#l" x="300" y="499"/><use href="#l" x="300" y="520"/><use href="#l" x="300" y="542"/><use href="#l" x="300" y="564"/><use href="#l" x="300" y="587"/><use href="#l" x="300" y="611"/><use href="#l" x="300" y="635"/><use href="#l" x="300" y="661"/><use href="#l" x="300" y="687"/><use href="#l" x="300" y="713"/><use href="#l" x="300" y="741"/><use href="#l" x="300" y="769"/><use href="#l" x="300" y="799"/></svg>