<svg width="4000" height="4000" viewBox="0 0 1000 1000" fill="none" xmlns="http://www.w3.org/2000/svg"><defs><rect id="l" width="400" height="1" fill="white"/></defs><rect width="1000" height="1000" fill="#0A0A0A"/><use href="#l" x="300" y="200"/><use href="#l" x="300" y="203"/><use href="#l" x="300" y="206"/><use href="#l" x="300" y="209"/><use href="#l" x="300" y="212"/><use href="#l" x="300" y="215"/><use href="#l" x="300" y="218"/><use href="#l" x="300" y="221"/><use href="#l" x="300" y="224"/><use href="#l" x="300" y="227"/><use href="#l" x="300" y="230"/><use href="#l" x="300" y="233"/><use href="#l" x="300" y="236"/><use href="#l" x="300" y="239"/><use href="#l" x="300" y="242"/><use href="#l" x="300" y="245"/><use href="#l" x="300" y="248"/><use href="#l" x="300" y="251"/><use href="#l" x="300" y="254"/><use href="#l" x="300" y="257"/><use href="#l" x="300" y="260"/><use href="#l" x="300" y="263"/><use href="#l" x="300" y="266"/><use href="#l" x="300" y="269"/><use href="#l" x="300" y="272"/><use href="#l" x="300" y="275"/><use href="#l" x="300" y="277"/><use href="#l" x="300" y="280"/><use href="#l" x="300" y="283"/><use href="#l" x="300" y="286"/><use href="#l" x="300" y="289"/><use href="#l" x="300" y="292"/><use href="#l" x="300" y="295"/><use href="#l" x="300" y="298"/><use href="#l" x="300" y="301"/><use href="#l" x="300" y="304"/><use href="#l" x="300" y="307"/><use href="#l" x="300" y="310"/><use href="#l" x="300" y="313"/><use href="#l" x="300" y="316"/><use href="#l" x="300" y="319"/><use href="#l" x="300" y="322"/><use href="#l" x="300" y="325"/><use href="#l" x="300" y="328"/><use href="#l" x="300" y="331"/><use href="#l" x="300" y="334"/><use href="#l" x="300" y="337"/><use href="#l" x="300" y="340"/><use href="#l" x="300" y="343"/><use href="#l" x="300" y="346"/><use href="#l" x="300" y="349"/><use href="#l" x="300" y="352"/><use href="#l" x="300" y="355"/><use href="#l" x="300" y="358"/><use href="#l" x="300" y="361"/><use href="#l" x="300" y="364"/><use href="#l" x="300" y="367"/><use href="#l" x="300" y="370"/><use href="#l" x="300" y="373"/><use href="#l" x="300" y="376"/><use href="#l" x="300" y="379"/><use href="#l" x="300" y="382"/><use href="#l" x="300" y="385"/><use href="#l" x="300" y="388"/><use href="#l" x="300" y="391"/><use href="#l" x="300" y="394"/><use href="#l" x="300" y="397"/><use href="#l" x="300" y="400"/><use href="#l" x="300" y="403"/><use href="#l" x="300" y="406"/><use href="#l" x="300" y="409"/><use href="#l" x="300" y="412"/><use href="#l" x="300" y="415"/><use href="#l" x="300" y="418"/><use href="#l" x="300" y="421"/><use href="#l" x="300" y="424"/><use href="#l" x="300" y="426"/><use href="#l" x="300" y="429"/><use href="#l" x="300" y="432"/><use href="#l" x="300" y="435"/><use href="#l" x="300" y="438"/><use href="#l" x="300" y="441"/><use href="#l" x="300" y="444"/><use href="#l" x="300" y="447"/><use href="#l" x="300" y="450"/><use href="#l" x="300" y="453"/><use href="#l" x="300" y="456"/><use href="#l" x="300" y="459"/><use href="#l" x="300" y="462"/><use href="#l" x="300" y="465"/><use href="#l" x="300" y="468"/><use href="#l" x="300" y="471"/><use href="#l" x="300" y="474"/><use href="#l" x="300" y="477"/><use href="#l" x="300" y="480"/><use href="#l" x="300" y="483"/><use href="#l" x="300" y="486"/><use href="#l" x="300" y="489"/><use href="#l" x="300" y="492"/><use href="#l" x="300" y="495"/><use href="#l" x="300" y="498"/><use href="#l" x="300" y="501"/><use href="#l" x="300" y="504"/><use href="#l" x="300" y="507"/><use href="#l" x="300" y="510"/><use href="#l" x="300" y="513"/><use href="#l" x="300" y="516"/><use href="#l" x="300" y="519"/><use href="#l" x="300" y="522"/><use href="#l" x="300" y="525"/><use href="#l" x="300" y="528"/><use href="#l" x="300" y="531"/><use href="#l" x="300" y="534"/><use href="#l" x="300" y="537"/><use href="#l" x="300" y="540"/><use href="#l" x="300" y="543"/><use href="#l" x="300" y="546"/><use href="#l" x="300" y="549"/><use href="#l" x="300" y="552"/><use href="#l" x="300" y="555"/><use href="#l" x="300" y="558"/><use href="#l" x="300" y="561"/><use href="#l" x="300" y="564"/><use href="#l" x="300" y="567"/><use href="#l" x="300" y="570"/><use href="#l" x="300" y="573"/><use href="#l" x="300" y="575"/><use href="#l" x="300" y="578"/><use href="#l" x="300" y="581"/><use href="#l" x="300" y="584"/><use href="#l" x="300" y="587"/><use href="#l" x="300" y="590"/><use href="#l" x="300" y="593"/><use href="#l" x="300" y="596"/><use href="#l" x="300" y="599"/><use href="#l" x="300" y="602"/><use href="#l" x="300" y="605"/><use href="#l" x="300" y="608"/><use href="#l" x="300" y="611"/><use href="#l" x="300" y="614"/><use href="#l" x="300" y="617"/><use href="#l" x="300" y="620"/><use href="#l" x="300" y="623"/><use href="#l" x="300" y="626"/><use href="#l" x="300" y="629"/><use href="#l" x="300" y="632"/><use href="#l" x="300" y="635"/><use href="#l" x="300" y="638"/><use href="#l" x="300" y="641"/><use href="#l" x="300" y="644"/><use href="#l" x="300" y="647"/><use href="#l" x="300" y="650"/><use href="#l" x="300" y="653"/><use href="#l" x="300" y="656"/><use href="#l" x="300" y="659"/><use href="#l" x="300" y="662"/><use href="#l" x="300" y="665"/><use href="#l" x="300" y="668"/><use href="#l" x="300" y="671"/><use href="#l" x="300" y="674"/><use href="#l" x="300" y="677"/><use href="#l" x="300" y="680"/><use href="#l" x="300" y="683"/><use href="#l" x="300" y="686"/><use href="#l" x="300" y="689"/><use href="#l" x="300" y="692"/><use href="#l" x="300" y="695"/><use href="#l" x="300" y="698"/><use href="#l" x="300" y="701"/><use href="#l" x="300" y="704"/><use href="#l" x="300" y="707"/><use href="#l" x="300" y="710"/><use href="#l" x="300" y="713"/><use href="#l" x="300" y="716"/><use href="#l" x="300" y="719"/><use href="#l" x="300" y="722"/><use href="#l" x="300" y="724"/><use href="#l" x="300" y="727"/><use href="#l" x="300" y="730"/><use href="#l" x="300" y="733"/><use href="#l" x="300" y="736"/><use href="#l" x="300" y="739"/><use href="#l" x="300" y="742"/><use href="#l" x="300" y="745"/><use href="#l" x="300" y="748"/><use href="#l" x="300" y="751"/><use href="#l" x="300" y="754"/><use href="#l" x="300" y="757"/><use href="#l" x="300" y="760"/><use href="#l" x="300" y="763"/><use href="#l" x="300" y="766"/><use href="#l" x="300" y="769"/><use href="#l" x="300" y="772"/><use href="#l" x="300" y="775"/><use href="#l" x="300" y="778"/><use href="#l" x="300" y="781"/><use href="#l" x="300" y="784"/><use href="#l" x="300" y="787"/><use href="#l" x="300" y="790"/><use href="#l" x="300" y="793"/><use href="#l" x="300" y="796"/><use href="#l" x="300" y="799"/></svg>