<svg width="4000" height="4000" viewBox="0 0 1000 1000" fill="none" xmlns="http://www.w3.org/2000/svg"><defs><rect id="l" width="400" height="1" fill="white"/></defs><rect width="1000" height="1000" fill="#0A0A0A"/><use href="#l" x="300" y="200"/><use href="#l" x="300" y="204"/><use href="#l" x="300" y="208"/><use href="#l" x="300" y="212"/><use href="#l" x="300" y="216"/><use href="#l" x="300" y="220"/><use href="#l" x="300" y="224"/><use href="#l" x="300" y="228"/><use href="#l" x="300" y="232"/><use href="#l" x="300" y="236"/><use href="#l" x="300" y="240"/><use href="#l" x="300" y="244"/><use href="#l" x="300" y="248"/><use href="#l" x="300" y="252"/><use href="#l" x="300" y="256"/><use href="#l" x="300" y="260"/><use href="#l" x="300" y="263"/><use href="#l" x="300" y="267"/><use href="#l" x="300" y="271"/><use href="#l" x="300" y="275"/><use href="#l" x="300" y="279"/><use href="#l" x="300" y="283"/><use href="#l" x="300" y="287"/><use href="#l" x="300" y="291"/><use href="#l" x="300" y="295"/><use href="#l" x="300" y="299"/><use href="#l" x="300" y="303"/><use href="#l" x="300" y="307"/><use href="#l" x="300" y="311"/><use href="#l" x="300" y="315"/><use href="#l" x="300" y="319"/><use href="#l" x="300" y="323"/><use href="#l" x="300" y="327"/><use href="#l" x="300" y="331"/><use href="#l" x="300" y="335"/><use href="#l" x="300" y="339"/><use href="#l" x="300" y="343"/><use href="#l" x="300" y="347"/><use href="#l" x="300" y="351"/><use href="#l" x="300" y="355"/><use href="#l" x="300" y="359"/><use href="#l" x="300" y="363"/><use href="#l" x="300" y="367"/><use href="#l" x="300" y="371"/><use href="#l" x="300" y="375"/><use href="#l" x="300" y="379"/><use href="#l" x="300" y="382"/><use href="#l" x="300" y="386"/><use href="#l" x="300" y="390"/><use href="#l" x="300" y="394"/><use href="#l" x="300" y="398"/><use href="#l" x="300" y="402"/><use href="#l" x="300" y="406"/><use href="#l" x="300" y="410"/><use href="#l" x="300" y="414"/><use href="#l" x="300" y="418"/><use href="#l" x="300" y="422"/><use href="#l" x="300" y="426"/><use href="#l" x="300" y="430"/><use href="#l" x="300" y="434"/><use href="#l" x="300" y="438"/><use href="#l" x="300" y="442"/><use href="#l" x="300" y="446"/><use href="#l" x="300" y="450"/><use href="#l" x="300" y="454"/><use href="#l" x="300" y="458"/><use href="#l" x="300" y="462"/><use href="#l" x="300" y="466"/><use href="#l" x="300" y="470"/><use href="#l" x="300" y="474"/><use href="#l" x="300" y="478"/><use href="#l" x="300" y="482"/><use href="#l" x="300" y="486"/><use href="#l" x="300" y="490"/><use href="#l" x="300" y="494"/><use href="#l" x="300" y="498"/><use href="#l" x="300" y="501"/><use href="#l" x="300" y="505"/><use href="#l" x="300" y="509"/><use href="#l" x="300" y="513"/><use href="#l" x="300" y="517"/><use href="#l" x="300" y="521"/><use href="#l" x="300" y="525"/><use href="#l" x="300" y="529"/><use href="#l" x="300" y="533"/><use href="#l" x="300" y="537"/><use href="#l" x="300" y="541"/><use href="#l" x="300" y="545"/><use href="#l" x="300" y="549"/><use href="#l" x="300" y="553"/><use href="#l" x="300" y="557"/><use href="#l" x="300" y="561"/><use href="#l" x="300" y="565"/><use href="#l" x="300" y="569"/><use href="#l" x="300" y="573"/><use href="#l" x="300" y="577"/><use href="#l" x="300" y="581"/><use href="#l" x="300" y="585"/><use href="#l" x="300" y="589"/><use href="#l" x="300" y="593"/><use href="#l" x="300" y="597"/><use href="#l" x="300" y="601"/><use href="#l" x="300" y="605"/><use href="#l" x="300" y="609"/><use href="#l" x="300" y="613"/><use href="#l" x="300" y="617"/><use href="#l" x="300" y="620"/><use href="#l" x="300" y="624"/><use href="#l" x="300" y="628"/><use href="#l" x="300" y="632"/><use href="#l" x="300" y="636"/><use href="#l" x="300" y="640"/><use href="#l" x="300" y="644"/><use href="#l" x="300" y="648"/><use href="#l" x="300" y="652"/><use href="#l" x="300" y="656"/><use href="#l" x="300" y="660"/><use href="#l" x="300" y="664"/><use href="#l" x="300" y="668"/><use href="#l" x="300" y="672"/><use href="#l" x="300" y="676"/><use href="#l" x="300" y="680"/><use href="#l" x="300" y="684"/><use href="#l" x="300" y="688"/><use href="#l" x="300" y="692"/><use href="#l" x="300" y="696"/><use href="#l" x="300" y="700"/><use href="#l" x="300" y="704"/><use href="#l" x="300" y="708"/><use href="#l" x="300" y="712"/><use href="#l" x="300" y="716"/><use href="#l" x="300" y="720"/><use href="#l" x="300" y="724"/><use href="#l" x="300" y="728"/><use href="#l" x="300" y="732"/><use href="#l" x="300" y="736"/><use href="#l" x="300" y="739"/><use href="#l" x="300" y="743"/><use href="#l" x="300" y="747"/><use href="#l" x="300" y="751"/><use href="#l" x="300" y="755"/><use href="#l" x="300" y="759"/><use href="#l" x="300" y="763"/><use href="#l" x="300" y="767"/><use href="#l" x="300" y="771"/><use href="#l" x="300" y="775"/><use href="#l" x="300" y="779"/><use href="#l" x="300" y="783"/><use href="#l" x="300" y="787"/><use href="#l" x="300" y="791"/><use href="#l" x="300" y="795"/><use href="#l" x="300" y="799"/></svg>