<svg width="4000" height="4000" viewBox="0 0 1000 1000" fill="none" xmlns="http://www.w3.org/2000/svg"><defs><rect id="l" width="400" height="1" fill="white"/></defs><rect width="1000" height="1000" fill="#0A0A0A"/><use href="#l" x="300" y="200"/><use href="#l" x="300" y="201"/><use href="#l" x="300" y="203"/><use href="#l" x="300" y="204"/><use href="#l" x="300" y="206"/><use href="#l" x="300" y="207"/><use href="#l" x="300" y="209"/><use href="#l" x="300" y="210"/><use href="#l" x="300" y="212"/><use href="#l" x="300" y="213"/><use href="#l" x="300" y="215"/><use href="#l" x="300" y="216"/><use href="#l" x="300" y="218"/><use href="#l" x="300" y="219"/><use href="#l" x="300" y="221"/><use href="#l" x="300" y="222"/><use href="#l" x="300" y="224"/><use href="#l" x="300" y="225"/><use href="#l" x="300" y="227"/><use href="#l" x="300" y="228"/><use href="#l" x="300" y="230"/><use href="#l" x="300" y="231"/><use href="#l" x="300" y="233"/><use href="#l" x="300" y="234"/><use href="#l" x="300" y="236"/><use href="#l" x="300" y="237"/><use href="#l" x="300" y="239"/><use href="#l" x="300" y="240"/><use href="#l" x="300" y="242"/><use href="#l" x="300" y="243"/><use href="#l" x="300" y="245"/><use href="#l" x="300" y="246"/><use href="#l" x="300" y="248"/><use href="#l" x="300" y="249"/><use href="#l" x="300" y="251"/><use href="#l" x="300" y="252"/><use href="#l" x="300" y="254"/><use href="#l" x="300" y="255"/><use href="#l" x="300" y="257"/><use href="#l" x="300" y="258"/><use href="#l" x="300" y="260"/><use href="#l" x="300" y="261"/><use href="#l" x="300" y="263"/><use href="#l" x="300" y="264"/><use href="#l" x="300" y="266"/><use href="#l" x="300" y="267"/><use href="#l" x="300" y="269"/><use href="#l" x="300" y="270"/><use href="#l" x="300" y="272"/><use href="#l" x="300" y="273"/><use href="#l" x="300" y="275"/><use href="#l" x="300" y="276"/><use href="#l" x="300" y="278"/><use href="#l" x="300" y="279"/><use href="#l" x="300" y="281"/><use href="#l" x="300" y="282"/><use href="#l" x="300" y="284"/><use href="#l" x="300" y="285"/><use href="#l" x="300" y="287"/><use href="#l" x="300" y="288"/><use href="#l" x="300" y="290"/><use href="#l" x="300" y="291"/><use href="#l" x="300" y="293"/><use href="#l" x="300" y="294"/><use href="#l" x="300" y="296"/><use href="#l" x="300" y="297"/><use href="#l" x="300" y="299"/><use href="#l" x="300" y="300"/><use href="#l" x="300" y="302"/><use href="#l" x="300" y="303"/><use href="#l" x="300" y="305"/><use href="#l" x="300" y="306"/><use href="#l" x="300" y="308"/><use href="#l" x="300" y="309"/><use href="#l" x="300" y="311"/><use href="#l" x="300" y="312"/><use href="#l" x="300" y="314"/><use href="#l" x="300" y="315"/><use href="#l" x="300" y="317"/><use href="#l" x="300" y="318"/><use href="#l" x="300" y="320"/><use href="#l" x="300" y="321"/><use href="#l" x="300" y="322"/><use href="#l" x="300" y="324"/><use href="#l" x="300" y="325"/><use href="#l" x="300" y="327"/><use href="#l" x="300" y="328"/><use href="#l" x="300" y="330"/><use href="#l" x="300" y="331"/><use href="#l" x="300" y="333"/><use href="#l" x="300" y="334"/><use href="#l" x="300" y="336"/><use href="#l" x="300" y="337"/><use href="#l" x="300" y="339"/><use href="#l" x="300" y="340"/><use href="#l" x="300" y="342"/><use href="#l" x="300" y="343"/><use href="#l" x="300" y="345"/><use href="#l" x="300" y="346"/><use href="#l" x="300" y="348"/><use href="#l" x="300" y="349"/><use href="#l" x="300" y="351"/><use href="#l" x="300" y="352"/><use href="#l" x="300" y="354"/><use href="#l" x="300" y="355"/><use href="#l" x="300" y="357"/><use href="#l" x="300" y="358"/><use href="#l" x="300" y="360"/><use href="#l" x="300" y="361"/><use href="#l" x="300" y="363"/><use href="#l" x="300" y="364"/><use href="#l" x="300" y="366"/><use href="#l" x="300" y="367"/><use href="#l" x="300" y="369"/><use href="#l" x="300" y="370"/><use href="#l" x="300" y="372"/><use href="#l" x="300" y="373"/><use href="#l" x="300" y="375"/><use href="#l" x="300" y="376"/><use href="#l" x="300" y="378"/><use href="#l" x="300" y="379"/><use href="#l" x="300" y="381"/><use href="#l" x="300" y="382"/><use href="#l" x="300" y="384"/><use href="#l" x="300" y="385"/><use href="#l" x="300" y="387"/><use href="#l" x="300" y="388"/><use href="#l" x="300" y="390"/><use href="#l" x="300" y="391"/><use href="#l" x="300" y="393"/><use href="#l" x="300" y="394"/><use href="#l" x="300" y="396"/><use href="#l" x="300" y="397"/><use href="#l" x="300" y="399"/><use href="#l" x="300" y="400"/><use href="#l" x="300" y="402"/><use href="#l" x="300" y="403"/><use href="#l" x="300" y="405"/><use href="#l" x="300" y="406"/><use href="#l" x="300" y="408"/><use href="#l" x="300" y="409"/><use href="#l" x="300" y="411"/><use href="#l" x="300" y="412"/><use href="#l" x="300" y="414"/><use href="#l" x="300" y="415"/><use href="#l" x="300" y="417"/><use href="#l" x="300" y="418"/><use href="#l" x="300" y="420"/><use href="#l" x="300" y="421"/><use href="#l" x="300" y="423"/><use href="#l" x="300" y="424"/><use href="#l" x="300" y="426"/><use href="#l" x="300" y="427"/><use href="#l" x="300" y="429"/><use href="#l" x="300" y="430"/><use href="#l" x="300" y="432"/><use href="#l" x="300" y="433"/><use href="#l" x="300" y="435"/><use href="#l" x="300" y="436"/><use href="#l" x="300" y="438"/><use href="#l" x="300" y="439"/><use href="#l" x="300" y="440"/><use href="#l" x="300" y="442"/><use href="#l" x="300" y="443"/><use href="#l" x="300" y="445"/><use href="#l" x="300" y="446"/><use href="#l" x="300" y="448"/><use href="#l" x="300" y="449"/><use href="#l" x="300" y="451"/><use href="#l" x="300" y="452"/><use href="#l" x="300" y="454"/><use href="#l" x="300" y="455"/><use href="#l" x="300" y="457"/><use href="#l" x="300" y="458"/><use href="#l" x="300" y="460"/><use href="#l" x="300" y="461"/><use href="#l" x="300" y="463"/><use href="#l" x="300" y="464"/><use href="#l" x="300" y="466"/><use href="#l" x="300" y="467"/><use href="#l" x="300" y="469"/><use href="#l" x="300" y="470"/><use href="#l" x="300" y="472"/><use href="#l" x="300" y="473"/><use href="#l" x="300" y="475"/><use href="#l" x="300" y="476"/><use href="#l" x="300" y="478"/><use href="#l" x="300" y="479"/><use href="#l" x="300" y="481"/><use href="#l" x="300" y="482"/><use href="#l" x="300" y="484"/><use href="#l" x="300" y="485"/><use href="#l" x="300" y="487"/><use href="#l" x="300" y="488"/><use href="#l" x="300" y="490"/><use href="#l" x="300" y="491"/><use href="#l" x="300" y="493"/><use href="#l" x="300" y="494"/><use href="#l" x="300" y="496"/><use href="#l" x="300" y="497"/><use href="#l" x="300" y="499"/><use href="#l" x="300" y="500"/><use href="#l" x="300" y="502"/><use href="#l" x="300" y="503"/><use href="#l" x="300" y="505"/><use href="#l" x="300" y="506"/><use href="#l" x="300" y="508"/><use href="#l" x="300" y="509"/><use href="#l" x="300" y="511"/><use href="#l" x="300" y="512"/><use href="#l" x="300" y="514"/><use href="#l" x="300" y="515"/><use href="#l" x="300" y="517"/><use href="#l" x="300" y="518"/><use href="#l" x="300" y="520"/><use href="#l" x="300" y="521"/><use href="#l" x="300" y="523"/><use href="#l" x="300" y="524"/><use href="#l" x="300" y="526"/><use href="#l" x="300" y="527"/><use href="#l" x="300" y="529"/><use href="#l" x="300" y="530"/><use href="#l" x="300" y="532"/><use href="#l" x="300" y="533"/><use href="#l" x="300" y="535"/><use href="#l" x="300" y="536"/><use href="#l" x="300" y="538"/><use href="#l" x="300" y="539"/><use href="#l" x="300" y="541"/><use href="#l" x="300" y="542"/><use href="#l" x="300" y="544"/><use href="#l" x="300" y="545"/><use href="#l" x="300" y="547"/><use href="#l" x="300" y="548"/><use href="#l" x="300" y="550"/><use href="#l" x="300" y="551"/><use href="#l" x="300" y="553"/><use href="#l" x="300" y="554"/><use href="#l" x="300" y="556"/><use href="#l" x="300" y="557"/><use href="#l" x="300" y="559"/><use href="#l" x="300" y="560"/><use href="#l" x="300" y="561"/><use href="#l" x="300" y="563"/><use href="#l" x="300" y="564"/><use href="#l" x="300" y="566"/><use href="#l" x="300" y="567"/><use href="#l" x="300" y="569"/><use href="#l" x="300" y="570"/><use href="#l" x="300" y="572"/><use href="#l" x="300" y="573"/><use href="#l" x="300" y="575"/><use href="#l" x="300" y="576"/><use href="#l" x="300" y="578"/><use href="#l" x="300" y="579"/><use href="#l" x="300" y="581"/><use href="#l" x="300" y="582"/><use href="#l" x="300" y="584"/><use href="#l" x="300" y="585"/><use href="#l" x="300" y="587"/><use href="#l" x="300" y="588"/><use href="#l" x="300" y="590"/><use href="#l" x="300" y="591"/><use href="#l" x="300" y="593"/><use href="#l" x="300" y="594"/><use href="#l" x="300" y="596"/><use href="#l" x="300" y="597"/><use href="#l" x="300" y="599"/><use href="#l" x="300" y="600"/><use href="#l" x="300" y="602"/><use href="#l" x="300" y="603"/><use href="#l" x="300" y="605"/><use href="#l" x="300" y="606"/><use href="#l" x="300" y="608"/><use href="#l" x="300" y="609"/><use href="#l" x="300" y="611"/><use href="#l" x="300" y="612"/><use href="#l" x="300" y="614"/><use href="#l" x="300" y="615"/><use href="#l" x="300" y="617"/><use href="#l" x="300" y="618"/><use href="#l" x="300" y="620"/><use href="#l" x="300" y="621"/><use href="#l" x="300" y="623"/><use href="#l" x="300" y="624"/><use href="#l" x="300" y="626"/><use href="#l" x="300" y="627"/><use href="#l" x="300" y="629"/><use href="#l" x="300" y="630"/><use href="#l" x="300" y="632"/><use href="#l" x="300" y="633"/><use href="#l" x="300" y="635"/><use href="#l" x="300" y="636"/><use href="#l" x="300" y="638"/><use href="#l" x="300" y="639"/><use href="#l" x="300" y="641"/><use href="#l" x="300" y="642"/><use href="#l" x="300" y="644"/><use href="#l" x="300" y="645"/><use href="#l" x="300" y="647"/><use href="#l" x="300" y="648"/><use href="#l" x="300" y="650"/><use href="#l" x="300" y="651"/><use href="#l" x="300" y="653"/><use href="#l" x="300" y="654"/><use href="#l" x="300" y="656"/><use href="#l" x="300" y="657"/><use href="#l" x="300" y="659"/><use href="#l" x="300" y="660"/><use href="#l" x="300" y="662"/><use href="#l" x="300" y="663"/><use href="#l" x="300" y="665"/><use href="#l" x="300" y="666"/><use href="#l" x="300" y="668"/><use href="#l" x="300" y="669"/><use href="#l" x="300" y="671"/><use href="#l" x="300" y="672"/><use href="#l" x="300" y="674"/><use href="#l" x="300" y="675"/><use href="#l" x="300" y="677"/><use href="#l" x="300" y="678"/><use href="#l" x="300" y="679"/><use href="#l" x="300" y="681"/><use href="#l" x="300" y="682"/><use href="#l" x="300" y="684"/><use href="#l" x="300" y="685"/><use href="#l" x="300" y="687"/><use href="#l" x="300" y="688"/><use href="#l" x="300" y="690"/><use href="#l" x="300" y="691"/><use href="#l" x="300" y="693"/><use href="#l" x="300" y="694"/><use href="#l" x="300" y="696"/><use href="#l" x="300" y="697"/><use href="#l" x="300" y="699"/><use href="#l" x="300" y="700"/><use href="#l" x="300" y="702"/><use href="#l" x="300" y="703"/><use href="#l" x="300" y="705"/><use href="#l" x="300" y="706"/><use href="#l" x="300" y="708"/><use href="#l" x="300" y="709"/><use href="#l" x="300" y="711"/><use href="#l" x="300" y="712"/><use href="#l" x="300" y="714"/><use href="#l" x="300" y="715"/><use href="#l" x="300" y="717"/><use href="#l" x="300" y="718"/><use href="#l" x="300" y="720"/><use href="#l" x="300" y="721"/><use href="#l" x="300" y="723"/><use href="#l" x="300" y="724"/><use href="#l" x="300" y="726"/><use href="#l" x="300" y="727"/><use href="#l" x="300" y="729"/><use href="#l" x="300" y="730"/><use href="#l" x="300" y="732"/><use href="#l" x="300" y="733"/><use href="#l" x="300" y="735"/><use href="#l" x="300" y="736"/><use href="#l" x="300" y="738"/><use href="#l" x="300" y="739"/><use href="#l" x="300" y="741"/><use href="#l" x="300" y="742"/><use href="#l" x="300" y="744"/><use href="#l" x="300" y="745"/><use href="#l" x="300" y="747"/><use href="#l" x="300" y="748"/><use href="#l" x="300" y="750"/><use href="#l" x="300" y="751"/><use href="#l" x="300" y="753"/><use href="#l" x="300" y="754"/><use href="#l" x="300" y="756"/><use href="#l" x="300" y="757"/><use href="#l" x="300" y="759"/><use href="#l" x="300" y="760"/><use href="#l" x="300" y="762"/><use href="#l" x="300" y="763"/><use href="#l" x="300" y="765"/><use href="#l" x="300" y="766"/><use href="#l" x="300" y="768"/><use href="#l" x="300" y="769"/><use href="#l" x="300" y="771"/><use href="#l" x="300" y="772"/><use href="#l" x="300" y="774"/><use href="#l" x="300" y="775"/><use href="#l" x="300" y="777"/><use href="#l" x="300" y="778"/><use href="#l" x="300" y="780"/><use href="#l" x="300" y="781"/><use href="#l" x="300" y="783"/><use href="#l" x="300" y="784"/><use href="#l" x="300" y="786"/><use href="#l" x="300" y="787"/><use href="#l" x="300" y="789"/><use href="#l" x="300" y="790"/><use href="#l" x="300" y="792"/><use href="#l" x="300" y="793"/><use href="#l" x="300" y="795"/><use href="#l" x="300" y="796"/><use href="#l" x="300" y="798"/><use href="#l" x="300" y="799"/></svg>